<svg xmlns="http://www.w3.org/2000/svg" viewBox="0 0 32 32" fill="none">
  <rect width="32" height="32" rx="9" fill="#131313"/>
  <path
    d="M19.2 9.4c0 2.1-1.4 3.2-4.1 3.8-2.2.5-3.4 1.2-3.4 2.6 0 1.2.9 2 2.5 2 1.4 0 2.6-.5 3.5-1.5l1.8 1.7c-1.2 1.4-3 2.2-5.4 2.2-3.4 0-5.7-1.9-5.7-4.8 0-2.2 1.5-3.4 4.3-4 2.1-.5 3.2-1.2 3.2-2.5 0-1.2-.9-2-2.4-2-1.3 0-2.4.5-3.2 1.4l-1.7-1.8c1.1-1.3 2.8-2.1 5-2.1 3.2 0 5.4 1.8 5.4 4.4Z"
    fill="#00e5ff"
  />
  <path
    d="M11.5 22.8h9.2"
    stroke="#00e5ff"
    stroke-width="2"
    stroke-linecap="round"
    stroke-opacity="0.55"
  />
</svg>
